<svg width="28" height="27" fill="none" xmlns="http://www.w3.org/2000/svg"><path d="M14.2 27c7.456 0 13.5-6.044 13.5-13.5S21.656 0 14.2 0 .7 6.044.7 13.5 6.744 27 14.2 27z" fill="#006CB6"/><path d="M6.1 11.9h1.3c.8 0 1.5.3 2.1.9.6.6.9 1.3.9 2.1s-.3 1.5-.9 2.1c-.6.6-1.3.9-2.1.9H4.5V9.4h5.1V11H6.2v.9h-.1zm0 4.2h1.3c.3 0 .6-.1.9-.4.2-.2.4-.5.4-.9s-.1-.6-.4-.9c-.3-.3-.5-.4-.9-.4H6.1v2.6zm8.2-6.9l3.8 8.6h-1.8l-.6-1.3h-2.9l-.6 1.3h-1.8l3.9-8.6zM15 15l-.8-1.8-.7 1.8H15zm3.5-5.6h2.9c.8 0 1.5.3 2.1.9.6.6.9 1.3.9 2.1s-.3 1.5-.9 2.1c-.6.6-1.3.9-2.1.9h-1.3v2.5h-1.7V9.4h.1zm3.9 2c-.2-.3-.5-.4-.9-.4h-1.3v2.5h1.3c.3 0 .6-.1.9-.4.2-.2.4-.5.4-.9s-.2-.5-.4-.8z" fill="#fff"/></svg>