<svg width="12" height="12" fill="none" xmlns="http://www.w3.org/2000/svg"><path d="M10.242 1.757a6 6 0 10-8.484 8.486 6 6 0 008.484-8.486zM9.087 8.358h-.001v-.001l-.304.302a1.6 1.6 0 01-1.51.432 5.32 5.32 0 01-1.544-.692 7.137 7.137 0 01-1.218-.982 7.195 7.195 0 01-.91-1.104 5.591 5.591 0 01-.684-1.384 1.6 1.6 0 01.4-1.634l.356-.356c.099-.1.26-.1.36 0l1.124 1.124c.1.099.1.26 0 .36l-.66.66a.538.538 0 00-.056.7c.239.328.503.636.79.922.32.322.668.614 1.04.874.215.15.506.125.692-.06l.638-.648c.099-.1.26-.1.36 0L9.086 8c.1.099.1.26 0 .359z" fill="#026DB0"/></svg>