<svg width="152" height="41" fill="none" xmlns="http://www.w3.org/2000/svg"><path d="M7.252 12.69h5.438c3.475 0 6.496 1.209 8.914 3.626 2.417 2.417 3.777 5.439 3.777 8.913 0 3.475-1.209 6.497-3.777 8.914-2.418 2.417-5.439 3.626-8.914 3.626H0V1.813h21.755v7.251H7.252v3.626zm0 18.13h5.438c1.511 0 2.72-.605 3.777-1.663 1.058-1.057 1.662-2.417 1.662-3.777 0-1.36-.604-2.719-1.662-3.776-1.057-1.058-2.417-1.662-3.777-1.662H7.252v10.877zM48.798 1.813v7.251H34.295v7.252h10.877v7.252H34.295v7.251h14.503v7.252H27.043V1.813h21.755zm1.812 0H63.3c3.475 0 6.497 1.208 8.914 3.626 2.417 2.417 3.777 5.438 3.777 8.913 0 3.475-1.209 6.496-3.777 8.913-2.417 2.418-5.439 3.626-8.913 3.626h-5.44V37.77h-7.25V1.813zm16.468 8.913C66.02 9.67 64.81 9.064 63.3 9.064h-5.44v10.878h5.44c1.51 0 2.719-.605 3.776-1.662 1.058-1.058 1.662-2.417 1.662-3.777 0-1.36-.604-2.72-1.662-3.777zm39.581-9.669V37.92h-7.252V17.978L77.652 38.675V1.813h7.252v20.093l21.755-20.849zm24.984 39.657C142.886 40.714 152 31.6 152 20.357 152 9.114 142.886 0 131.643 0c-11.243 0-20.357 9.114-20.357 20.357 0 11.243 9.114 20.357 20.357 20.357z" fill="#fff"/><path d="M119.5 17.978h1.964c1.209 0 2.266.453 3.173 1.36.906.906 1.359 1.963 1.359 3.172 0 1.208-.453 2.266-1.359 3.172-.907.907-1.964 1.36-3.173 1.36h-4.381V14.201h7.705v2.417h-5.137v1.36h-.151zm0 6.345h1.964c.453 0 .907-.151 1.36-.605.302-.302.604-.755.604-1.36 0-.604-.151-.906-.604-1.359-.453-.453-.756-.604-1.36-.604H119.5v3.928zm12.388-10.424l5.741 12.992h-2.719l-.907-1.964h-4.381l-.907 1.964h-2.719l5.892-12.992zm1.058 8.762l-1.209-2.72-1.058 2.72h2.267zm5.287-8.461h4.381c1.209 0 2.266.454 3.173 1.36.906.907 1.36 1.964 1.36 3.173s-.454 2.266-1.36 3.172c-.907.907-1.964 1.36-3.173 1.36h-1.964v3.777h-2.568V14.201h.151zm5.892 3.022c-.302-.453-.755-.604-1.36-.604h-1.964v3.777h1.964c.454 0 .907-.151 1.36-.604.302-.303.604-.756.604-1.36 0-.605-.302-.756-.604-1.209z" fill="#026DB0"/></svg>