<svg width="28" height="27" viewBox="0 0 28 27" fill="none" xmlns="http://www.w3.org/2000/svg">
<path d="M14.2002 27C21.656 27 27.7002 20.9558 27.7002 13.5C27.7002 6.04416 21.656 0 14.2002 0C6.74435 0 0.700195 6.04416 0.700195 13.5C0.700195 20.9558 6.74435 27 14.2002 27Z" fill="#006CB6"/>
<path d="M6.1 11.9H7.4C8.2 11.9 8.9 12.2 9.5 12.8C10.1 13.4 10.4 14.1 10.4 14.9C10.4 15.7 10.1 16.4 9.5 17C8.9 17.6 8.2 17.9 7.4 17.9H4.5V9.40001H9.6V11H6.2V11.9H6.1ZM6.1 16.1H7.4C7.7 16.1 8 16 8.3 15.7C8.5 15.5 8.7 15.2 8.7 14.8C8.7 14.4 8.6 14.2 8.3 13.9C8 13.6 7.8 13.5 7.4 13.5H6.1V16.1Z" fill="white"/>
<path d="M14.2999 9.20001L18.0999 17.8H16.2999L15.6999 16.5H12.7999L12.1999 17.8H10.3999L14.2999 9.20001ZM14.9999 15L14.1999 13.2L13.4999 15H14.9999Z" fill="white"/>
<path d="M18.4999 9.40001H21.3999C22.1999 9.40001 22.8999 9.70001 23.4999 10.3C24.0999 10.9 24.3999 11.6 24.3999 12.4C24.3999 13.2 24.0999 13.9 23.4999 14.5C22.8999 15.1 22.1999 15.4 21.3999 15.4H20.0999V17.9H18.3999V9.40001H18.4999ZM22.3999 11.4C22.1999 11.1 21.8999 11 21.4999 11H20.1999V13.5H21.4999C21.7999 13.5 22.0999 13.4 22.3999 13.1C22.5999 12.9 22.7999 12.6 22.7999 12.2C22.7999 11.8 22.5999 11.7 22.3999 11.4Z" fill="white"/>
</svg>
