<svg width="12" height="12" viewBox="0 0 12 12" fill="none" xmlns="http://www.w3.org/2000/svg">
<path d="M10.2419 1.75666C7.89841 -0.586138 4.09945 -0.585435 1.75666 1.75806C-0.586138 4.10156 -0.585435 7.90052 1.75806 10.2433C4.10156 12.5861 7.90052 12.5854 10.2433 10.2421C11.3685 9.11668 12.0004 7.59021 11.9999 5.99881C11.9997 4.40765 11.3674 2.88165 10.2419 1.75666ZM9.08668 8.35802C9.08645 8.35825 9.08621 8.35849 9.08598 8.35872V8.35684L8.782 8.65895C8.38895 9.05715 7.81614 9.22098 7.27193 9.0909C6.72373 8.94418 6.20225 8.71051 5.72788 8.39903C5.28702 8.11731 4.87874 7.78802 4.50984 7.41701C4.17047 7.08021 3.86578 6.71037 3.59977 6.31311C3.30891 5.88561 3.07876 5.41991 2.91587 4.92913C2.72907 4.35258 2.88376 3.72024 3.31594 3.29508L3.67196 2.93907C3.77086 2.8397 3.93188 2.83923 4.03125 2.93837C4.03148 2.9386 4.03172 2.93884 4.03195 2.93907L5.15601 4.06313C5.25538 4.16203 5.25585 4.32304 5.15671 4.42242C5.15648 4.42265 5.15624 4.42289 5.15601 4.42312L4.49601 5.08312C4.30664 5.27038 4.28273 5.56804 4.44 5.78319C4.67859 6.11084 4.94296 6.41905 5.23007 6.70521C5.55022 7.02678 5.89827 7.31927 6.26998 7.57919C6.4849 7.72896 6.77623 7.70388 6.96185 7.51919L7.59982 6.87115C7.69872 6.77178 7.8595 6.77131 7.95911 6.87045C7.95935 6.87068 7.95958 6.87092 7.95982 6.87115L9.08574 7.99919C9.18535 8.09763 9.18582 8.25841 9.08668 8.35802Z" fill="#026DB0"/>
</svg>
