<svg width="9" height="12" viewBox="0 0 9 12" fill="none" xmlns="http://www.w3.org/2000/svg">
<path d="M4.40023 0C1.97385 0 0 1.94958 0 4.34613C0 7.32019 3.93774 11.6862 4.10527 11.8707C4.26284 12.0439 4.53763 12.0437 4.69496 11.8707C4.86273 11.6862 8.80023 7.32019 8.80023 4.34613C8.80023 1.94958 6.82637 0 4.40023 0ZM4.40023 6.53267C3.17957 6.53267 2.18647 5.55178 2.18647 4.34613C2.18647 3.14047 3.17957 2.15959 4.40023 2.15959C5.6209 2.15959 6.61399 3.14047 6.61399 4.34613C6.61399 5.55178 5.6209 6.53267 4.40023 6.53267Z" fill="#026DB0"/>
</svg>
