<svg width="15" height="15" viewBox="0 0 15 15" fill="none" xmlns="http://www.w3.org/2000/svg">
<path d="M14.8125 13.9309L10.5477 9.66608C11.3738 8.64675 11.8717 7.34915 11.8717 5.93732C11.8717 2.66257 9.20914 0 5.93732 0C2.6655 0 0 2.66257 0 5.93732C0 9.21207 2.66257 11.8746 5.93732 11.8746C7.34915 11.8746 8.64675 11.3767 9.66608 10.5507L13.9309 14.8155C14.0539 14.9385 14.2121 15 14.3732 15C14.5343 15 14.6924 14.9385 14.8155 14.8155C15.0586 14.5694 15.0586 14.174 14.8125 13.9309ZM5.93732 10.6239C3.35384 10.6239 1.25073 8.5208 1.25073 5.93732C1.25073 3.35384 3.35384 1.25073 5.93732 1.25073C8.5208 1.25073 10.6239 3.35384 10.6239 5.93732C10.6239 8.5208 8.5208 10.6239 5.93732 10.6239Z" fill="#026DB0"/>
</svg>
