<svg width="152" height="41" viewBox="0 0 152 41" fill="none" xmlns="http://www.w3.org/2000/svg">
<path d="M7.2516 12.6901H12.6903C16.165 12.6901 19.1865 13.8987 21.6037 16.3159C24.0209 18.7331 25.3806 21.7546 25.3806 25.2294C25.3806 28.7041 24.172 31.7256 21.6037 34.1428C19.1865 36.56 16.165 37.7686 12.6903 37.7686H0V1.81274H21.7548V9.06434H7.2516V12.6901ZM7.2516 30.8191H12.6903C14.201 30.8191 15.4096 30.2148 16.4672 29.1573C17.5247 28.0998 18.129 26.7401 18.129 25.3804C18.129 24.0208 17.5247 22.6611 16.4672 21.6036C15.4096 20.546 14.05 19.9417 12.6903 19.9417H7.2516V30.8191Z" fill="white"/>
<path d="M48.7978 1.81274V9.06434H34.2946V16.3159H45.172V23.5675H34.2946V30.8191H48.7978V38.0707H27.043V1.81274H48.7978Z" fill="white"/>
<path d="M50.6104 1.81274H63.3006C66.7754 1.81274 69.7969 3.02134 72.2141 5.43854C74.6313 7.85574 75.9909 10.8772 75.9909 14.352C75.9909 17.8267 74.7823 20.8482 72.2141 23.2654C69.7969 25.6826 66.7754 26.8912 63.3006 26.8912H57.8619V37.7686H50.6104V1.81274ZM67.0775 10.7262C66.02 9.66864 64.8114 9.06434 63.3006 9.06434H57.8619V19.9417H63.3006C64.8114 19.9417 66.02 19.3374 67.0775 18.2799C68.135 17.2224 68.7393 15.8627 68.7393 14.503C68.7393 13.1434 68.135 11.7837 67.0775 10.7262Z" fill="white"/>
<path d="M106.659 1.05737V37.9196H99.4071V17.9778L77.6523 38.675V1.81275H84.9039V21.9057L106.659 1.05737Z" fill="white"/>
<path d="M131.643 40.7143C142.886 40.7143 152 31.6001 152 20.3571C152 9.1142 142.886 0 131.643 0C120.4 0 111.286 9.1142 111.286 20.3571C111.286 31.6001 120.4 40.7143 131.643 40.7143Z" fill="white"/>
<path d="M119.5 17.9776H121.464C122.673 17.9776 123.73 18.4308 124.637 19.3372C125.543 20.2437 125.996 21.3012 125.996 22.5098C125.996 23.7184 125.543 24.7759 124.637 25.6824C123.73 26.5888 122.673 27.0421 121.464 27.0421H117.083V14.2007H124.788V16.6179H119.651V17.9776H119.5ZM119.5 24.3227H121.464C121.917 24.3227 122.371 24.1716 122.824 23.7184C123.126 23.4163 123.428 22.963 123.428 22.3587C123.428 21.7544 123.277 21.4523 122.824 20.9991C122.371 20.5458 122.068 20.3948 121.464 20.3948H119.5V24.3227Z" fill="#026DB0"/>
<path d="M131.888 13.8987L137.629 26.8911H134.91L134.003 24.9272H129.622L128.715 26.8911H125.996L131.888 13.8987ZM132.946 22.661L131.737 19.9417L130.679 22.661H132.946Z" fill="#026DB0"/>
<path d="M138.233 14.2007H142.614C143.823 14.2007 144.88 14.6539 145.787 15.5604C146.693 16.4668 147.147 17.5243 147.147 18.7329C147.147 19.9415 146.693 20.9991 145.787 21.9055C144.88 22.812 143.823 23.2652 142.614 23.2652H140.65V27.0421H138.082V14.2007H138.233ZM144.125 17.2222C143.823 16.769 143.37 16.6179 142.765 16.6179H140.801V20.3948H142.765C143.219 20.3948 143.672 20.2437 144.125 19.7905C144.427 19.4883 144.729 19.0351 144.729 18.4308C144.729 17.8265 144.427 17.6754 144.125 17.2222Z" fill="#026DB0"/>
</svg>
