<svg width="21" height="21" viewBox="0 0 21 21" fill="none" xmlns="http://www.w3.org/2000/svg">
<path d="M20.7071 19.5002L15.012 13.8051C16.115 12.4439 16.78 10.7111 16.78 8.82578C16.78 4.45275 13.2244 0.897217 8.85532 0.897217C4.4862 0.897217 0.926758 4.45275 0.926758 8.82578C0.926758 13.1988 4.48229 16.7543 8.85532 16.7543C10.7407 16.7543 12.4734 16.0894 13.8346 14.9864L19.5297 20.6815C19.694 20.8457 19.9052 20.9279 20.1204 20.9279C20.3355 20.9279 20.5467 20.8457 20.711 20.6815C21.0357 20.3529 21.0357 19.8249 20.7071 19.5002ZM8.85532 15.0841C5.4054 15.0841 2.59696 12.2757 2.59696 8.82578C2.59696 5.37586 5.4054 2.56742 8.85532 2.56742C12.3052 2.56742 15.1137 5.37586 15.1137 8.82578C15.1137 12.2757 12.3052 15.0841 8.85532 15.0841Z" fill="#026DB0"/>
</svg>
